<svg width="138" height="46" viewBox="0 0 138 46" fill="none" xmlns="http://www.w3.org/2000/svg">
<path d="M0 0.000854337H25.4657V2.7373H0V0.000854337Z" fill="#FEFEFE"/>
<path d="M0 14.6375H15.6819V17.374H0V14.6375Z" fill="#FEFEFE"/>
<path d="M0 29.2762H25.4657V32.0122H0V29.2762Z" fill="#FEFEFE"/>
<path d="M40.931 32.0122C48.061 32.0122 53.711 28.2453 53.711 23.3506C53.711 18.4522 48.061 14.5927 40.931 14.5927C35.5591 14.5927 31.0227 11.9571 31.0227 8.75533C31.0227 5.55589 35.5591 2.91918 40.931 2.91918C43.9866 2.91918 46.8575 3.76688 48.8015 5.17841L48.893 5.27291C49.3566 5.65011 49.8194 6.12018 50.0991 6.4978C50.5609 7.15548 51.487 7.25042 52.0434 6.87293C52.6906 6.40205 52.8765 5.46014 52.4138 4.80162C50.4689 2.16646 46.6722 0.377441 42.4126 0.0940469H42.1347C41.7634 -4.64114e-05 41.3946 -6.67565e-05 40.931 -6.67565e-05C33.7999 -6.67565e-05 28.2444 3.86026 28.2444 8.75533C28.2444 13.6517 33.7999 17.5113 40.931 17.5113C46.3015 17.5113 50.9325 20.1488 50.9325 23.3506C50.9325 26.5492 46.3015 29.1872 40.931 29.1872C37.8751 29.1872 35.004 28.3395 33.1519 26.9267C33.0591 26.9267 33.0591 26.8333 33.0591 26.8333C32.5047 26.4558 32.1328 25.9861 31.7627 25.6086C31.2995 24.9509 30.4652 24.7626 29.8179 25.2319C29.1708 25.7024 29.0764 26.6434 29.5396 27.2101C31.3916 29.9395 35.1892 31.729 39.5419 32.0122H40.931Z" fill="#FEFEFE"/>
<path d="M69.082 32.0122C69.824 32.0122 70.4711 31.4456 70.4711 30.5996V2.91918H80.3799C81.1207 2.91918 81.7686 2.26068 81.7686 1.41259C81.7686 0.658447 81.1207 -6.67565e-05 80.3799 -6.67565e-05H57.876C57.0445 -6.67565e-05 56.4868 0.658447 56.4868 1.41259C56.4868 2.26068 57.0445 2.91918 57.876 2.91918H67.6928V30.5996C67.6928 31.4456 68.3423 32.0122 69.082 32.0122Z" fill="#FEFEFE"/>
<path d="M84.5474 0.000854337H110.013V2.7373H84.5474V0.000854337Z" fill="#FEFEFE"/>
<path d="M84.5474 14.6375H103.447V17.374H84.5474V14.6375Z" fill="#FEFEFE"/>
<path d="M84.5474 29.2762H110.013V32.0122H84.5474V29.2762Z" fill="#FEFEFE"/>
<path d="M128.256 17.5111H129.46C133.808 17.5111 137.45 14.1609 138 9.88193V7.63097C137.45 3.35197 133.808 0.00064532 129.46 0.00064532H114.179C113.347 0.00064532 112.792 0.659034 112.792 1.41261V30.6003C112.792 31.4463 113.347 32.0122 114.179 32.0122C114.921 32.0122 115.568 31.4463 115.568 30.6003V2.91947H129.46C132.607 2.91947 135.201 5.55619 135.201 8.75647C135.201 11.9574 132.607 14.5934 129.46 14.5934H125.2C125.2 14.6892 125.108 14.6892 125.108 14.6892H124.922C124.922 14.6892 124.829 14.6892 124.829 14.7826H124.737C124.645 14.8768 124.645 14.8768 124.551 14.8768C124.551 14.9702 124.551 14.9702 124.458 14.9702C124.458 14.9702 124.458 15.0643 124.367 15.0643C124.367 15.1601 124.367 15.1601 124.274 15.1601C124.274 15.2535 124.274 15.2535 124.182 15.3469V15.4411L124.088 15.5345V15.7237L123.996 15.8177V16.2888C123.996 16.2888 124.088 16.2888 124.088 16.3829V16.4763C124.088 16.5697 124.088 16.5697 124.182 16.6654V16.7592C124.274 16.7592 124.274 16.853 124.274 16.853V16.9469L135.572 31.5412C135.849 31.8222 136.219 32.0122 136.682 32.0122C136.961 32.0122 137.238 31.9164 137.516 31.7288C137.758 31.5246 137.929 31.2489 138 30.9484V30.3303C137.952 30.1312 137.855 29.9342 137.701 29.7522L128.256 17.5111Z" fill="#FEFEFE"/>
<path d="M138 43.522H119.979V42.8404H138V43.522ZM0 42.8404H18.0931V43.522H0V42.8404Z" fill="#FEFEFE"/>
<path d="M25.709 46C25.1517 46 24.6496 45.8785 24.202 45.6359C23.7549 45.3929 23.4039 45.0566 23.149 44.6265C22.8948 44.1962 22.7674 43.7147 22.7674 43.1815C22.7674 42.6485 22.8948 42.1669 23.149 41.7368C23.4039 41.3066 23.7561 40.9702 24.206 40.7277C24.656 40.4847 25.1598 40.3632 25.7169 40.3632C26.1347 40.3632 26.5209 40.4321 26.8743 40.5694C27.2278 40.7064 27.528 40.907 27.7743 41.171L27.3966 41.5429C26.9575 41.1048 26.4027 40.8861 25.7331 40.8861C25.2883 40.8861 24.8837 40.9861 24.5194 41.1868C24.155 41.3874 23.8698 41.6617 23.6638 42.0103C23.4573 42.3585 23.3544 42.7491 23.3544 43.1815C23.3544 43.6146 23.4573 44.0051 23.6638 44.3534C23.8698 44.7015 24.155 44.9763 24.5194 45.1769C24.8837 45.3771 25.2883 45.4776 25.7331 45.4776C26.4084 45.4776 26.9628 45.2561 27.3966 44.8124L27.7743 45.1847C27.528 45.4483 27.2267 45.6502 26.8704 45.7902C26.5139 45.9299 26.1268 46 25.709 46ZM32.2174 44.4721H29.0831L28.4078 45.9525H27.789L30.361 40.4111H30.9474L33.5194 45.9525H32.8923L32.2174 44.4721ZM32.0004 43.9972L30.6502 41.0205L29.3001 43.9972H32.0004ZM38.0827 45.9525L36.7967 44.1714C36.652 44.1871 36.5022 44.1951 36.3468 44.1951H34.8359V45.9525H34.2414V40.4111H36.3468C37.0647 40.4111 37.6271 40.5797 38.0344 40.9176C38.4418 41.2551 38.6451 41.7198 38.6451 42.311C38.6451 42.7435 38.5342 43.1092 38.3116 43.4071C38.0895 43.7056 37.7718 43.9205 37.3595 44.0525L38.7335 45.9525H38.0827ZM36.3308 43.6964C36.8879 43.6964 37.3138 43.5749 37.6087 43.332C37.9032 43.0894 38.0506 42.7491 38.0506 42.311C38.0506 41.8623 37.9032 41.518 37.6087 41.2778C37.3138 41.0375 36.8879 40.9176 36.3308 40.9176H34.8359V43.6964H36.3308ZM42.1574 40.4111H42.752V45.4459H45.9024V45.9525H42.1574V40.4111ZM48.8422 46C48.1135 46 47.5459 45.7942 47.1385 45.3827C46.7311 44.9707 46.5279 44.3719 46.5279 43.5857V40.4111H47.1225V43.5615C47.1225 44.2058 47.2698 44.6858 47.5643 45.0024C47.8593 45.3193 48.285 45.4776 48.8422 45.4776C49.4046 45.4776 49.8333 45.3193 50.1282 45.0024C50.4226 44.6858 50.5701 44.2058 50.5701 43.5615V40.4111H51.1486V43.5857C51.1486 44.3719 50.9466 44.9707 50.5419 45.3827C50.1375 45.7942 49.571 46 48.8422 46ZM56.1782 45.9525L54.362 43.5141L52.5538 45.9525H51.8704L54.0082 43.1025L52.007 40.4111H52.6904L54.3861 42.6751L56.0738 40.4111H56.7166L54.7236 43.0866L56.8693 45.9525H56.1782ZM59.8975 46C59.1688 46 58.6011 45.7942 58.1938 45.3827C57.7863 44.9707 57.5831 44.3719 57.5831 43.5857V40.4111H58.1776V43.5615C58.1776 44.2058 58.3251 44.6858 58.6196 45.0024C58.9144 45.3193 59.3403 45.4776 59.8975 45.4776C60.4599 45.4776 60.8886 45.3193 61.1834 45.0024C61.4779 44.6858 61.6253 44.2058 61.6253 43.5615V40.4111H62.2038V43.5857C62.2038 44.3719 62.0017 44.9707 61.5972 45.3827C61.1926 45.7942 60.6263 46 59.8975 46ZM67.6272 45.9525L66.3413 44.1714C66.1967 44.1871 66.0467 44.1951 65.8913 44.1951H64.3804V45.9525H63.7859V40.4111H65.8913C66.6092 40.4111 67.1716 40.5797 67.579 40.9176C67.9863 41.2551 68.1896 41.7198 68.1896 42.311C68.1896 42.7435 68.0788 43.1092 67.8563 43.4071C67.634 43.7056 67.3163 43.9205 66.9042 44.0525L68.278 45.9525H67.6272ZM65.8753 43.6964C66.4325 43.6964 66.8582 43.5749 67.1531 43.332C67.4476 43.0894 67.5951 42.7491 67.5951 42.311C67.5951 41.8623 67.4476 41.518 67.1531 41.2778C66.8582 41.0375 66.4325 40.9176 65.8753 40.9176H64.3804V43.6964H65.8753ZM71.2343 44.0368V45.9525H70.6474V44.0368L68.3973 40.4111H69.0321L70.9612 43.5219L72.8899 40.4111H73.4844L71.2343 44.0368ZM78.6197 40.4111C79.3377 40.4111 79.9 40.5797 80.3075 40.9176C80.7148 41.2551 80.9181 41.7198 80.9181 42.311C80.9181 42.9018 80.7148 43.3653 80.3075 43.7005C79.9 44.0352 79.3377 44.203 78.6197 44.203H77.1088V45.9525H76.5143V40.4111H78.6197ZM78.6037 43.6886C79.161 43.6886 79.5867 43.5682 79.8817 43.328C80.1762 43.0881 80.3235 42.7491 80.3235 42.311C80.3235 41.8623 80.1762 41.518 79.8817 41.2778C79.5867 41.0375 79.161 40.9176 78.6037 40.9176H77.1088V43.6886H78.6037ZM85.9719 45.4459V45.9525H81.994V40.4111H85.8514V40.9176H82.5885V42.8888H85.4978V43.3873H82.5885V45.4459H85.9719ZM91.0011 45.9525L89.7152 44.1714C89.5706 44.1871 89.4208 44.1951 89.2653 44.1951H87.7544V45.9525H87.1598V40.4111H89.2653C89.9832 40.4111 90.5456 40.5797 90.953 40.9176C91.3603 41.2551 91.5636 41.7198 91.5636 42.311C91.5636 42.7435 91.4527 43.1092 91.2302 43.4071C91.008 43.7056 90.6902 43.9205 90.2781 44.0525L91.6519 45.9525H91.0011ZM89.2492 43.6964C89.8064 43.6964 90.2323 43.5749 90.5271 43.332C90.8216 43.0894 90.969 42.7491 90.969 42.311C90.969 41.8623 90.8216 41.518 90.5271 41.2778C90.2323 41.0375 89.8064 40.9176 89.2492 40.9176H87.7544V43.6964H89.2492ZM93.3546 40.9176V43.0946H96.2639V43.6015H93.3546V45.9525H92.7599V40.4111H96.6175V40.9176H93.3546ZM99.9027 46C99.174 46 98.6064 45.7942 98.1991 45.3827C97.7916 44.9707 97.5884 44.3719 97.5884 43.5857V40.4111H98.1829V43.5615C98.1829 44.2058 98.3303 44.6858 98.6248 45.0024C98.9197 45.3193 99.3456 45.4776 99.9027 45.4776C100.465 45.4776 100.894 45.3193 101.189 45.0024C101.483 44.6858 101.631 44.2058 101.631 43.5615V40.4111H102.209V43.5857C102.209 44.3719 102.007 44.9707 101.603 45.3827C101.198 45.7942 100.631 46 99.9027 46ZM109.633 40.4111V45.9525H109.063V41.5191L106.853 45.2481H106.571L104.362 41.5429V45.9525H103.791V40.4111H104.281L106.724 44.5195L109.143 40.4111H109.633ZM115.234 45.4459V45.9525H111.256V40.4111H115.113V40.9176H111.85V42.8888H114.76V43.3873H111.85V45.4459H115.234Z" fill="#FEFEFE"/>
</svg>
