<svg width="138" height="46" viewBox="0 0 138 46" fill="none" xmlns="http://www.w3.org/2000/svg">
<path d="M0 0.000610197H25.4657V2.73706H0V0.000610197Z" fill="#222222"/>
<path d="M0 14.6377H15.6819V17.3743H0V14.6377Z" fill="#222222"/>
<path d="M0 29.2764H25.4657V32.0125H0V29.2764Z" fill="#222222"/>
<path d="M40.931 32.0125C48.061 32.0125 53.711 28.2455 53.711 23.3509C53.711 18.4525 48.061 14.593 40.931 14.593C35.5591 14.593 31.0227 11.9574 31.0227 8.75557C31.0227 5.55614 35.5591 2.91943 40.931 2.91943C43.9866 2.91943 46.8575 3.76712 48.8015 5.17865L48.893 5.27315C49.3566 5.65036 49.8194 6.12042 50.0991 6.49805C50.5609 7.15572 51.487 7.25066 52.0434 6.87317C52.6906 6.40229 52.8765 5.46038 52.4138 4.80187C50.4689 2.16671 46.6722 0.377685 42.4126 0.094291H42.1347C41.7634 0.000197729 41.3946 0.000177384 40.931 0.000177384C33.7999 0.000177384 28.2444 3.86051 28.2444 8.75557C28.2444 13.6519 33.7999 17.5115 40.931 17.5115C46.3015 17.5115 50.9325 20.1491 50.9325 23.3509C50.9325 26.5495 46.3015 29.1874 40.931 29.1874C37.8751 29.1874 35.004 28.3397 33.1519 26.9269C33.0591 26.9269 33.0591 26.8335 33.0591 26.8335C32.5047 26.4561 32.1328 25.9863 31.7627 25.6088C31.2995 24.9511 30.4652 24.7628 29.8179 25.2322C29.1708 25.7026 29.0764 26.6437 29.5396 27.2103C31.3916 29.9397 35.1892 31.7292 39.5419 32.0125H40.931Z" fill="#222222"/>
<path d="M69.082 32.0125C69.824 32.0125 70.4711 31.4458 70.4711 30.5998V2.91943H80.3799C81.1207 2.91943 81.7686 2.26092 81.7686 1.41283C81.7686 0.658691 81.1207 0.000177384 80.3799 0.000177384H57.876C57.0445 0.000177384 56.4868 0.658691 56.4868 1.41283C56.4868 2.26092 57.0445 2.91943 57.876 2.91943H67.6928V30.5998C67.6928 31.4458 68.3423 32.0125 69.082 32.0125Z" fill="#222222"/>
<path d="M84.5474 0.000610197H110.013V2.73706H84.5474V0.000610197Z" fill="#222222"/>
<path d="M84.5474 14.6377H103.447V17.3743H84.5474V14.6377Z" fill="#222222"/>
<path d="M84.5474 29.2764H110.013V32.0125H84.5474V29.2764Z" fill="#222222"/>
<path d="M128.256 17.5114H129.46C133.808 17.5114 137.45 14.1612 138 9.88218V7.63121C137.45 3.35222 133.808 0.000889461 129.46 0.000889461H114.179C113.347 0.000889461 112.792 0.659278 112.792 1.41286V30.6005C112.792 31.4465 113.347 32.0125 114.179 32.0125C114.921 32.0125 115.568 31.4465 115.568 30.6005V2.91971H129.46C132.607 2.91971 135.201 5.55644 135.201 8.75672C135.201 11.9577 132.607 14.5937 129.46 14.5937H125.2C125.2 14.6894 125.108 14.6894 125.108 14.6894H124.922C124.922 14.6894 124.829 14.6894 124.829 14.7828H124.737C124.645 14.8771 124.645 14.8771 124.551 14.8771C124.551 14.9705 124.551 14.9705 124.458 14.9705C124.458 14.9705 124.458 15.0646 124.367 15.0646C124.367 15.1603 124.367 15.1603 124.274 15.1603C124.274 15.2537 124.274 15.2537 124.182 15.3471V15.4414L124.088 15.5347V15.7239L123.996 15.818V16.289C123.996 16.289 124.088 16.289 124.088 16.3831V16.4765C124.088 16.5699 124.088 16.5699 124.182 16.6657V16.7595C124.274 16.7595 124.274 16.8533 124.274 16.8533V16.9471L135.572 31.5414C135.849 31.8224 136.219 32.0125 136.682 32.0125C136.961 32.0125 137.238 31.9167 137.516 31.7291C137.758 31.5248 137.929 31.2491 138 30.9487V30.3305C137.952 30.1314 137.855 29.9345 137.701 29.7524L128.256 17.5114Z" fill="#222222"/>
<path d="M138 43.5217H119.979V42.8402H138V43.5217ZM0 42.8402H18.0931V43.5217H0V42.8402Z" fill="#222222"/>
<path d="M25.7089 46C25.1517 46 24.6495 45.8785 24.202 45.6359C23.7549 45.3929 23.4038 45.0566 23.149 44.6265C22.8947 44.1962 22.7673 43.7147 22.7673 43.1815C22.7673 42.6485 22.8947 42.1669 23.149 41.7368C23.4038 41.3066 23.756 40.9702 24.206 40.7277C24.6559 40.4847 25.1597 40.3632 25.7168 40.3632C26.1346 40.3632 26.5208 40.4321 26.8743 40.5694C27.2277 40.7064 27.5279 40.907 27.7742 41.171L27.3965 41.5429C26.9575 41.1048 26.4026 40.8861 25.733 40.8861C25.2883 40.8861 24.8837 40.9861 24.5193 41.1868C24.1549 41.3874 23.8698 41.6617 23.6637 42.0103C23.4572 42.3585 23.3543 42.7491 23.3543 43.1815C23.3543 43.6146 23.4572 44.0051 23.6637 44.3534C23.8698 44.7015 24.1549 44.9763 24.5193 45.1769C24.8837 45.3771 25.2883 45.4776 25.733 45.4776C26.4083 45.4776 26.9627 45.2561 27.3965 44.8124L27.7742 45.1847C27.5279 45.4483 27.2266 45.6502 26.8703 45.7902C26.5139 45.9299 26.1267 46 25.7089 46ZM32.2174 44.4721H29.083L28.4077 45.9525H27.789L30.3609 40.4111H30.9474L33.5194 45.9525H32.8922L32.2174 44.4721ZM32.0004 43.9972L30.6502 41.0205L29.3 43.9972H32.0004ZM38.0826 45.9525L36.7967 44.1714C36.652 44.1871 36.5022 44.1951 36.3467 44.1951H34.8358V45.9525H34.2413V40.4111H36.3467C37.0647 40.4111 37.627 40.5797 38.0343 40.9176C38.4418 41.2551 38.645 41.7198 38.645 42.311C38.645 42.7435 38.5342 43.1092 38.3115 43.4071C38.0894 43.7056 37.7717 43.9205 37.3595 44.0525L38.7334 45.9525H38.0826ZM36.3307 43.6964C36.8878 43.6964 37.3137 43.5749 37.6086 43.332C37.9031 43.0894 38.0505 42.7491 38.0505 42.311C38.0505 41.8623 37.9031 41.518 37.6086 41.2778C37.3137 41.0375 36.8878 40.9176 36.3307 40.9176H34.8358V43.6964H36.3307ZM42.1573 40.4111H42.752V45.4459H45.9023V45.9525H42.1573V40.4111ZM48.8422 46C48.1135 46 47.5458 45.7942 47.1384 45.3827C46.7311 44.9707 46.5279 44.3719 46.5279 43.5857V40.4111H47.1224V43.5615C47.1224 44.2058 47.2698 44.6858 47.5643 45.0024C47.8592 45.3193 48.2849 45.4776 48.8422 45.4776C49.4045 45.4776 49.8333 45.3193 50.1282 45.0024C50.4225 44.6858 50.5701 44.2058 50.5701 43.5615V40.4111H51.1486V43.5857C51.1486 44.3719 50.9465 44.9707 50.5419 45.3827C50.1374 45.7942 49.5709 46 48.8422 46ZM56.1781 45.9525L54.362 43.5141L52.5537 45.9525H51.8703L54.0081 43.1025L52.007 40.4111H52.6904L54.3861 42.6751L56.0737 40.4111H56.7166L54.7235 43.0866L56.8692 45.9525H56.1781ZM59.8975 46C59.1687 46 58.601 45.7942 58.1937 45.3827C57.7863 44.9707 57.583 44.3719 57.583 43.5857V40.4111H58.1776V43.5615C58.1776 44.2058 58.3251 44.6858 58.6196 45.0024C58.9144 45.3193 59.3402 45.4776 59.8975 45.4776C60.4598 45.4776 60.8886 45.3193 61.1834 45.0024C61.4778 44.6858 61.6252 44.2058 61.6252 43.5615V40.4111H62.2038V43.5857C62.2038 44.3719 62.0016 44.9707 61.5972 45.3827C61.1926 45.7942 60.6262 46 59.8975 46ZM67.6271 45.9525L66.3412 44.1714C66.1966 44.1871 66.0467 44.1951 65.8912 44.1951H64.3803V45.9525H63.7858V40.4111H65.8912C66.6092 40.4111 67.1715 40.5797 67.579 40.9176C67.9863 41.2551 68.1895 41.7198 68.1895 42.311C68.1895 42.7435 68.0787 43.1092 67.8562 43.4071C67.634 43.7056 67.3162 43.9205 66.9041 44.0525L68.2779 45.9525H67.6271ZM65.8752 43.6964C66.4325 43.6964 66.8582 43.5749 67.1531 43.332C67.4476 43.0894 67.595 42.7491 67.595 42.311C67.595 41.8623 67.4476 41.518 67.1531 41.2778C66.8582 41.0375 66.4325 40.9176 65.8752 40.9176H64.3803V43.6964H65.8752ZM71.2343 44.0368V45.9525H70.6474V44.0368L68.3973 40.4111H69.032L70.9612 43.5219L72.8899 40.4111H73.4844L71.2343 44.0368ZM78.6197 40.4111C79.3376 40.4111 79.9 40.5797 80.3074 40.9176C80.7147 41.2551 80.918 41.7198 80.918 42.311C80.918 42.9018 80.7147 43.3653 80.3074 43.7005C79.9 44.0352 79.3376 44.203 78.6197 44.203H77.1088V45.9525H76.5143V40.4111H78.6197ZM78.6037 43.6886C79.1609 43.6886 79.5867 43.5682 79.8816 43.328C80.1761 43.0881 80.3235 42.7491 80.3235 42.311C80.3235 41.8623 80.1761 41.518 79.8816 41.2778C79.5867 41.0375 79.1609 40.9176 78.6037 40.9176H77.1088V43.6886H78.6037ZM85.9718 45.4459V45.9525H81.9939V40.4111H85.8513V40.9176H82.5885V42.8888H85.4978V43.3873H82.5885V45.4459H85.9718ZM91.0011 45.9525L89.7151 44.1714C89.5706 44.1871 89.4207 44.1951 89.2653 44.1951H87.7544V45.9525H87.1597V40.4111H89.2653C89.9831 40.4111 90.5456 40.5797 90.9529 40.9176C91.3602 41.2551 91.5636 41.7198 91.5636 42.311C91.5636 42.7435 91.4526 43.1092 91.2301 43.4071C91.0079 43.7056 90.6901 43.9205 90.278 44.0525L91.6519 45.9525H91.0011ZM89.2491 43.6964C89.8064 43.6964 90.2323 43.5749 90.527 43.332C90.8215 43.0894 90.9689 42.7491 90.9689 42.311C90.9689 41.8623 90.8215 41.518 90.527 41.2778C90.2323 41.0375 89.8064 40.9176 89.2491 40.9176H87.7544V43.6964H89.2491ZM93.3545 40.9176V43.0946H96.2638V43.6015H93.3545V45.9525H92.7599V40.4111H96.6174V40.9176H93.3545ZM99.9026 46C99.1739 46 98.6063 45.7942 98.199 45.3827C97.7916 44.9707 97.5883 44.3719 97.5883 43.5857V40.4111H98.1828V43.5615C98.1828 44.2058 98.3302 44.6858 98.6247 45.0024C98.9197 45.3193 99.3455 45.4776 99.9026 45.4776C100.465 45.4776 100.894 45.3193 101.189 45.0024C101.483 44.6858 101.631 44.2058 101.631 43.5615V40.4111H102.209V43.5857C102.209 44.3719 102.007 44.9707 101.602 45.3827C101.198 45.7942 100.631 46 99.9026 46ZM109.633 40.4111V45.9525H109.063V41.5191L106.853 45.2481H106.571L104.362 41.5429V45.9525H103.791V40.4111H104.281L106.724 44.5195L109.143 40.4111H109.633ZM115.234 45.4459V45.9525H111.256V40.4111H115.113V40.9176H111.85V42.8888H114.759V43.3873H111.85V45.4459H115.234Z" fill="#222222"/>
</svg>
